<svg width="636" height="597" viewBox="0 0 636 597" fill="none" xmlns="http://www.w3.org/2000/svg">
<g clip-path="url(#clip0_17_1768)">
<path opacity="0.18" d="M372.34 589.54C378.79 592.2 385.92 592.59 392.88 592.92C451.62 595.754 510.4 597.11 569.22 596.99C575.1 596.99 581.11 596.93 586.62 594.89C592.13 592.85 597.12 588.37 598.09 582.57C561.26 579.71 524.17 579.99 487.47 578.63C468.23 577.92 448.25 580.33 429.11 582.16C419.41 583.094 409.727 584.187 400.06 585.44C393.98 586.24 377.75 591.77 372.34 589.54Z" fill="#1D2741"/>
<path d="M487.37 571.45L491.9 582.58L473.6 591.24L456.7 592.47C456.7 592.47 453.81 581.34 461.7 580.35C466.312 579.823 470.712 578.122 474.48 575.41L487.37 571.45ZM501.9 576.48C499.606 577.427 497.612 578.978 496.13 580.968C494.647 582.957 493.731 585.312 493.48 587.78L492.99 592.47H513.77V576.47L501.9 576.48Z" fill="#6C63FF"/>
<path opacity="0.22" d="M633.9 66.4599V344.34C633.901 348.384 633.106 352.388 631.559 356.124C630.012 359.861 627.744 363.255 624.885 366.115C622.025 368.974 618.631 371.242 614.894 372.789C611.158 374.336 607.154 375.131 603.11 375.13H30.79C22.624 375.13 14.7924 371.886 9.01818 366.112C3.24394 360.338 0 352.506 0 344.34V66.4599C0.0105838 58.2972 3.25792 50.4717 9.02988 44.6998C14.8018 38.9278 22.6272 35.6805 30.79 35.6699H603.13C611.289 35.6858 619.11 38.9355 624.877 44.7068C630.645 50.4782 633.889 58.3006 633.9 66.4599V66.4599Z" fill="url(#paint0_linear_17_1768)"/>
<path d="M635.4 65.4299V343.3C635.402 350.346 632.987 357.18 628.56 362.661C624.132 368.142 617.959 371.94 611.07 373.42C608.949 373.867 606.787 374.091 604.62 374.09H32.28C28.2354 374.093 24.2299 373.298 20.4925 371.752C16.7552 370.205 13.3592 367.938 10.4988 365.078C7.63833 362.219 5.36951 358.823 3.82201 355.087C2.27451 351.35 1.47867 347.344 1.47998 343.3V65.4299C1.48792 57.2637 4.73547 49.4342 10.5099 43.6598C16.2843 37.8854 24.1137 34.6378 32.28 34.6299H604.62C612.098 34.6312 619.32 37.3551 624.937 42.2926C630.553 47.23 634.18 54.0434 635.14 61.4599C635.318 62.7757 635.405 64.1021 635.4 65.4299V65.4299Z" fill="#6C63FF"/>
<path d="M635.4 65.4299V343.3C635.402 350.346 632.987 357.18 628.56 362.661C624.132 368.142 617.959 371.94 611.07 373.42C608.949 373.867 606.787 374.091 604.62 374.09H32.28C28.2354 374.093 24.2299 373.298 20.4925 371.752C16.7552 370.205 13.3592 367.938 10.4988 365.078C7.63833 362.219 5.36951 358.823 3.82201 355.087C2.27451 351.35 1.47867 347.344 1.47998 343.3V65.4299C1.48792 57.2637 4.73547 49.4342 10.5099 43.6598C16.2843 37.8854 24.1137 34.6378 32.28 34.6299H604.62C612.098 34.6312 619.32 37.3551 624.937 42.2926C630.553 47.23 634.18 54.0434 635.14 61.4599C635.318 62.7757 635.405 64.1021 635.4 65.4299V65.4299Z" fill="url(#paint1_linear_17_1768)"/>
<path d="M633.66 62.4999H0.26001C1.22196 55.0826 4.8509 48.2691 10.4691 43.3318C16.0873 38.3945 23.3106 35.671 30.79 35.6699H603.13C610.61 35.6688 617.834 38.3916 623.453 43.3293C629.072 48.267 632.7 55.0818 633.66 62.4999V62.4999Z" fill="url(#paint2_linear_17_1768)"/>
<path d="M413.7 279.01H199.44C195.066 279.01 191.52 282.556 191.52 286.93V299.96C191.52 304.334 195.066 307.88 199.44 307.88H413.7C418.074 307.88 421.62 304.334 421.62 299.96V286.93C421.62 282.556 418.074 279.01 413.7 279.01Z" fill="white" stroke="#6C63FF" stroke-width="0.88" stroke-miterlimit="10"/>
<path d="M210.28 300.12C213.754 300.12 216.57 297.304 216.57 293.83C216.57 290.356 213.754 287.54 210.28 287.54C206.806 287.54 203.99 290.356 203.99 293.83C203.99 297.304 206.806 300.12 210.28 300.12Z" fill="#6C63FF"/>
<path d="M229.85 300.12C233.324 300.12 236.14 297.304 236.14 293.83C236.14 290.356 233.324 287.54 229.85 287.54C226.376 287.54 223.56 290.356 223.56 293.83C223.56 297.304 226.376 300.12 229.85 300.12Z" fill="#6C63FF"/>
<path d="M249.43 300.12C252.904 300.12 255.72 297.304 255.72 293.83C255.72 290.356 252.904 287.54 249.43 287.54C245.956 287.54 243.14 290.356 243.14 293.83C243.14 297.304 245.956 300.12 249.43 300.12Z" fill="#6C63FF"/>
<path d="M269 300.12C272.474 300.12 275.29 297.304 275.29 293.83C275.29 290.356 272.474 287.54 269 287.54C265.526 287.54 262.71 290.356 262.71 293.83C262.71 297.304 265.526 300.12 269 300.12Z" fill="#6C63FF"/>
<path d="M437.15 292.11V288.79H439.77V286.65H437.15V285.05H439.77V282.91H434.52V292.11C432.925 292.436 431.507 293.343 430.543 294.654C429.578 295.965 429.134 297.588 429.298 299.208C429.462 300.828 430.221 302.329 431.429 303.421C432.637 304.513 434.207 305.117 435.835 305.117C437.463 305.117 439.033 304.513 440.241 303.421C441.449 302.329 442.208 300.828 442.372 299.208C442.535 297.588 442.092 295.965 441.127 294.654C440.162 293.343 438.745 292.436 437.15 292.11ZM435.84 303.11C434.936 303.112 434.051 302.846 433.298 302.345C432.545 301.844 431.958 301.131 431.611 300.296C431.263 299.461 431.171 298.542 431.347 297.655C431.522 296.768 431.956 295.952 432.595 295.312C433.234 294.672 434.048 294.236 434.935 294.059C435.821 293.882 436.741 293.971 437.576 294.317C438.412 294.663 439.126 295.248 439.629 296C440.132 296.752 440.4 297.636 440.4 298.54C440.4 299.751 439.92 300.913 439.066 301.772C438.211 302.63 437.051 303.115 435.84 303.12V303.11Z" fill="#6C63FF"/>
<path d="M345.64 125.83H280.02C273.525 125.83 268.26 131.095 268.26 137.59V203.21C268.26 209.705 273.525 214.97 280.02 214.97H345.64C352.135 214.97 357.4 209.705 357.4 203.21V137.59C357.4 131.095 352.135 125.83 345.64 125.83Z" fill="url(#paint3_linear_17_1768)"/>
<path d="M346 125.83H285.11C278.819 125.83 273.72 130.93 273.72 137.22V203.58C273.72 209.871 278.819 214.97 285.11 214.97H346C352.29 214.97 357.39 209.871 357.39 203.58V137.22C357.39 130.93 352.29 125.83 346 125.83Z" fill="#6C63FF"/>
<path d="M360.84 170.69L356.24 175.06L354.24 176.94C352.664 175.059 350.663 173.578 348.403 172.62C346.143 171.662 343.688 171.254 341.24 171.43C340.169 171.56 339.084 171.383 338.11 170.92C334.8 169.04 339.99 162.63 339.99 162.63C341.132 162.605 342.275 162.655 343.41 162.78C343.51 162.77 343.61 162.77 343.71 162.78L344.62 162.89C348.96 163.51 356.03 165.58 360.84 170.69Z" fill="white"/>
<path opacity="0.39" d="M356.06 174.65L356.24 175.06L354.24 176.94C352.664 175.058 350.663 173.578 348.403 172.62C346.143 171.662 343.688 171.254 341.24 171.43C340.169 171.559 339.084 171.383 338.11 170.92L339.99 162.63C339.99 162.63 341.84 162.63 343.41 162.78C343.51 162.77 343.61 162.77 343.71 162.78C344.015 162.798 344.319 162.835 344.62 162.89C344.62 162.89 345.71 167.55 344.9 169.51C344.9 169.54 352.57 170.82 356.06 174.65Z" fill="url(#paint4_linear_17_1768)"/>
<path d="M314.38 144.62H311.28C308.789 144.62 306.77 146.639 306.77 149.13V191.67C306.77 194.161 308.789 196.18 311.28 196.18H314.38C316.871 196.18 318.89 194.161 318.89 191.67V149.13C318.89 146.639 316.871 144.62 314.38 144.62Z" fill="url(#paint5_linear_17_1768)"/>
<path d="M341.22 169.7C341.17 175.098 338.992 180.258 335.159 184.059C331.326 187.86 326.148 189.995 320.75 190H316.34C315.674 189.999 315.022 189.811 314.458 189.458C313.894 189.104 313.441 188.599 313.15 188C312.881 187.458 312.754 186.856 312.783 186.251C312.812 185.647 312.995 185.06 313.314 184.545C313.634 184.031 314.08 183.608 314.609 183.314C315.139 183.021 315.735 182.868 316.34 182.87H317.98C319.758 182.87 321.518 182.516 323.157 181.827C324.796 181.138 326.28 180.129 327.524 178.858C328.767 177.587 329.745 176.081 330.398 174.428C331.052 172.775 331.369 171.007 331.33 169.23C331.21 165.706 329.72 162.369 327.176 159.927C324.632 157.486 321.236 156.135 317.71 156.16H315.71C314.936 156.16 314.193 155.852 313.645 155.305C313.098 154.757 312.79 154.015 312.79 153.24V152C312.79 151.226 313.098 150.483 313.645 149.935C314.193 149.388 314.936 149.08 315.71 149.08H320.4C331.73 149.07 341.3 158.35 341.22 169.7Z" fill="white"/>
<path opacity="0.39" d="M335.76 170.52C335.72 175.214 333.829 179.703 330.498 183.01C327.167 186.317 322.664 188.175 317.97 188.18H314.13C313.79 188.18 313.453 188.126 313.13 188.02C312.861 187.478 312.734 186.876 312.763 186.271C312.792 185.667 312.975 185.08 313.294 184.565C313.614 184.051 314.06 183.628 314.589 183.334C315.119 183.041 315.715 182.888 316.32 182.89H317.96C319.738 182.891 321.498 182.536 323.137 181.847C324.776 181.158 326.26 180.149 327.504 178.878C328.747 177.607 329.725 176.101 330.378 174.448C331.032 172.795 331.349 171.028 331.31 169.25C331.19 165.726 329.7 162.389 327.156 159.948C324.612 157.506 321.216 156.155 317.69 156.18H315.69C314.916 156.18 314.173 155.872 313.625 155.325C313.078 154.777 312.77 154.035 312.77 153.26V152.71C313.028 152.626 313.298 152.582 313.57 152.58H317.64C322.418 152.569 327.006 154.45 330.401 157.812C333.796 161.174 335.723 165.742 335.76 170.52V170.52Z" fill="url(#paint6_linear_17_1768)"/>
<path d="M330.69 165.47C330.69 165.47 332.03 169.06 330.36 174.54C330.36 174.54 324.03 181.05 329.43 191.4L333.89 196.17L328.7 201.28C325.474 198.781 322.971 195.469 321.447 191.684C319.924 187.899 319.434 183.776 320.03 179.74C321.18 170.92 330.69 165.47 330.69 165.47Z" fill="white"/>
<path d="M324.27 205.4L365.37 166.4L399.85 196.17L357.39 236.9L324.27 205.4Z" fill="#6C63FF"/>
<path d="M324.27 205.4L327 220.86L357.39 250.02V236.9L324.27 205.4Z" fill="#6C63FF"/>
<path d="M399.85 196.17V210.36L357.39 250.02V236.9L399.85 196.17Z" fill="#6C63FF"/>
<path d="M324.27 205.4L327 220.86L357.39 250.02V236.9L324.27 205.4Z" fill="url(#paint7_linear_17_1768)"/>
<path d="M399.85 196.17V210.36L357.39 250.02V236.9L399.85 196.17Z" fill="url(#paint8_linear_17_1768)"/>
<path d="M331.85 212.61L373.34 173.28L377.17 176.59L335.76 216.33L331.85 212.61Z" fill="url(#paint9_linear_17_1768)"/>
<path d="M344.1 224L386.58 184.67L390.41 187.97L348.01 227.71L344.1 224Z" fill="url(#paint10_linear_17_1768)"/>
<path opacity="0.21" d="M462.6 262.72C462.182 268.898 462.518 275.103 463.6 281.2C464.28 284.97 465.19 289.12 463.25 292.44C462.25 294.24 460.45 295.5 458.84 296.83C448.62 305.23 442.71 317.7 433.98 327.64C433.402 328.458 432.563 329.054 431.6 329.33C430.61 329.394 429.628 329.115 428.82 328.54C423.504 325.472 419.036 321.128 415.82 315.9C414.25 313.34 412.82 310.42 410.12 309.11C405.12 306.65 399.06 311.88 398.51 317.45C397.96 323.02 400.95 328.26 403.84 333.05L417.21 355.23C421.28 361.99 425.57 368.98 432.21 373.23C436.805 376.031 441.967 377.773 447.32 378.33C454.9 379.33 462.59 378.83 470.22 378.24C484.173 377.16 498.09 375.773 511.97 374.08C516.73 373.5 522.14 372.46 524.55 368.33C526.17 365.55 525.95 362.12 525.67 358.92C524.69 347.327 523.69 335.737 522.67 324.15C522.12 317.58 521.3 310.44 516.67 305.76C513.9 302.98 510.02 301.4 507.56 298.33C505.802 295.869 504.669 293.017 504.26 290.02C501.89 277.52 504.16 264.09 499.26 252.32C498.26 249.94 496.92 247.58 494.71 246.25C492.681 245.198 490.398 244.737 488.12 244.92C477.17 245.23 463.4 250.45 462.6 262.72Z" fill="url(#paint11_linear_17_1768)"/>
<path opacity="0.18" d="M611.37 439.22C605.44 507.55 417.45 485.66 282.26 457.96C147.07 430.26 35.53 485.66 9.80998 439.22C-1.58002 418.66 6.02998 392.98 18.06 370.74C22.6451 373.296 27.8107 374.629 33.06 374.61H600.3C608.11 393 613.48 415 611.37 439.22Z" fill="#6C63FF"/>
<path d="M463.69 410.83L451.38 500.49C450.864 504.265 451.258 508.109 452.53 511.7L474.53 576.48L487.39 572.48L477.69 508.03C477.483 506.694 477.571 505.328 477.95 504.03L494.64 446.39L501.9 576.39H513.77L523.98 448.1C527.44 426.66 521.1 410.83 521.1 410.83H463.69Z" fill="#3F3D56"/>
<path d="M526.78 387.09L514.6 308.63L512.9 299.07C512.9 299.07 535.64 312.07 542.16 334.81C550.69 364.66 526.78 387.09 526.78 387.09Z" fill="#6C63FF"/>
<path d="M526.78 387.09L514.6 308.63L512.9 299.07C512.9 299.07 535.64 312.07 542.16 334.81C550.69 364.66 526.78 387.09 526.78 387.09Z" fill="url(#paint12_linear_17_1768)"/>
<path d="M539.28 368.83C548.51 350.58 530.28 318.83 530.28 318.83L514.58 308.64L516.35 297.31C516.35 297.31 541.67 299.9 544.14 335.65C544.96 347.16 544.1 361.38 539.28 368.83Z" fill="#6C63FF"/>
<path d="M408.83 307.57C407.98 304.69 406.5 301.26 403.5 301C404.313 303.626 404.193 306.452 403.16 309C396.62 306.58 395.1 297 388.57 294.52C387.57 295.58 388.13 297.31 388.75 298.63C389.89 301.09 391.037 303.55 392.19 306.01C390.657 303.596 389.027 301.263 387.3 299.01C386.79 298.32 385.91 297.57 385.19 298.01C384.47 298.45 384.73 299.38 384.99 300.1C386.13 303.3 387.43 306.45 388.86 309.53C387.255 306.835 385.418 304.285 383.37 301.91C382.03 302.24 382.31 304.22 382.89 305.47L387.18 314.61L383.74 309.61C382.63 309.72 382.8 311.42 383.34 312.4C387.953 320.636 395.161 327.116 403.84 330.83C405.6 331.58 407.64 332.2 409.37 331.39C416.81 328 410.27 312.51 408.83 307.57Z" fill="url(#paint13_linear_17_1768)"/>
<path d="M526.78 331.84V393.36C526.78 400.9 525.55 407.03 518 407.03H465.28C457.76 407.03 457.47 400.96 457.42 393.45L457.03 351.64C457.03 351.64 445.65 371.91 436.57 369.94C427.49 367.97 400.57 330.86 400.57 330.86L413.97 319.6L436.55 342.24C436.55 342.24 440.18 333.99 445.46 315.52C450.74 297.05 467.9 297 467.9 297H513.74C530.29 297 526.78 331.84 526.78 331.84Z" fill="#6C63FF"/>
<path d="M526.78 338.77C526.78 338.77 534.7 349.9 526.78 361.03V338.77Z" fill="#3F3D56"/>
<path d="M521.1 406.64H463.69V410.83H521.1V406.64Z" fill="url(#paint14_linear_17_1768)"/>
<path d="M499.81 255.16H483.24V297.29H499.81V255.16Z" fill="url(#paint15_linear_17_1768)"/>
<path d="M499.82 250.54V297.3H491.08V294.45C491.08 293.621 490.917 292.799 490.599 292.033C490.281 291.267 489.815 290.571 489.228 289.985C488.641 289.399 487.945 288.934 487.178 288.618C486.411 288.301 485.59 288.139 484.76 288.14H484.26C480.096 288.14 476.103 286.486 473.159 283.542C470.214 280.597 468.56 276.604 468.56 272.44V250.54H499.82Z" fill="url(#paint16_linear_17_1768)"/>
<path d="M468.56 255.16C468.56 255.16 454.06 247.25 459.25 238.59C464.44 229.93 472.9 235.38 472.9 235.38H500.85C500.85 235.38 504.06 234.88 505.3 240.32C506.54 245.76 499.86 279.53 499.86 279.53H485.97L484.19 270.75C484.19 270.75 486.96 267.75 486.71 264.56C486.733 263.963 486.55 263.376 486.191 262.898C485.832 262.42 485.32 262.081 484.74 261.936C484.16 261.792 483.548 261.852 483.007 262.105C482.466 262.359 482.029 262.792 481.77 263.33C480.52 265.55 481.02 256.15 476.57 255.16C473.933 254.562 471.196 254.562 468.56 255.16V255.16Z" fill="#3F3D56"/>
<path d="M496.11 297.21C496.11 297.21 489.68 305.63 480.77 305.63C471.86 305.63 445.9 331.1 444.16 338.77C442.42 346.44 436.57 342.24 436.57 342.24C436.57 342.24 440.2 333.99 445.48 315.52C450.76 297.05 467.9 297 467.9 297H491.2L496.11 297.21Z" fill="url(#paint17_linear_17_1768)"/>
<path d="M487.37 571.45L491.9 582.58L473.6 591.24L456.7 592.47C456.7 592.47 453.81 581.34 461.7 580.35C466.312 579.823 470.712 578.122 474.48 575.41L487.37 571.45Z" fill="url(#paint18_linear_17_1768)"/>
<path d="M501.9 576.48C499.606 577.427 497.612 578.977 496.13 580.967C494.647 582.957 493.731 585.311 493.48 587.78L492.99 592.47H513.77V576.47L501.9 576.48Z" fill="url(#paint19_linear_17_1768)"/>
<path opacity="0.18" d="M120.13 36.1901C120.13 36.1901 248.49 -45.2399 412.87 36.1901H120.13Z" fill="#6C63FF"/>
</g>
<defs>
<linearGradient id="paint0_linear_17_1768" x1="0" y1="205.4" x2="633.92" y2="205.4" gradientUnits="userSpaceOnUse">
<stop stop-color="#68E1FD"/>
<stop offset="1" stop-color="#69B9EB"/>
</linearGradient>
<linearGradient id="paint1_linear_17_1768" x1="-90.39" y1="120.92" x2="874.21" y2="317.8" gradientUnits="userSpaceOnUse">
<stop stop-color="white" stop-opacity="0"/>
<stop offset="1" stop-color="white"/>
</linearGradient>
<linearGradient id="paint2_linear_17_1768" x1="-54.14" y1="56.8999" x2="1078.7" y2="33.9899" gradientUnits="userSpaceOnUse">
<stop offset="0.02" stop-opacity="0"/>
<stop offset="0.99" stop-color="#3F3D56"/>
</linearGradient>
<linearGradient id="paint3_linear_17_1768" x1="313.9" y1="169.99" x2="117.26" y2="244.19" gradientUnits="userSpaceOnUse">
<stop stop-color="#68E1FD"/>
<stop offset="0.01" stop-color="#67DDF9"/>
<stop offset="0.12" stop-color="#5CB3CE"/>
<stop offset="0.24" stop-color="#538EA9"/>
<stop offset="0.37" stop-color="#4C718B"/>
<stop offset="0.5" stop-color="#465A73"/>
<stop offset="0.63" stop-color="#424A63"/>
<stop offset="0.79" stop-color="#404059"/>
<stop offset="0.99" stop-color="#3F3D56"/>
</linearGradient>
<linearGradient id="paint4_linear_17_1768" x1="338.09" y1="169.79" x2="356.24" y2="169.79" gradientUnits="userSpaceOnUse">
<stop stop-color="#68E1FD"/>
<stop offset="1" stop-color="#69B9EB"/>
</linearGradient>
<linearGradient id="paint5_linear_17_1768" x1="299.94" y1="170.35" x2="402.51" y2="170.68" gradientUnits="userSpaceOnUse">
<stop stop-opacity="0"/>
<stop offset="0.02" stop-color="#030304" stop-opacity="0.04"/>
<stop offset="0.18" stop-color="#181821" stop-opacity="0.39"/>
<stop offset="0.35" stop-color="#292839" stop-opacity="0.66"/>
<stop offset="0.53" stop-color="#363449" stop-opacity="0.85"/>
<stop offset="0.73" stop-color="#3D3B53" stop-opacity="0.96"/>
<stop offset="0.99" stop-color="#3F3D56"/>
</linearGradient>
<linearGradient id="paint6_linear_17_1768" x1="352.04" y1="169.19" x2="320.82" y2="170.22" gradientUnits="userSpaceOnUse">
<stop stop-color="#68E1FD"/>
<stop offset="1" stop-color="#69B9EB"/>
</linearGradient>
<linearGradient id="paint7_linear_17_1768" x1="332.98" y1="248.71" x2="366.51" y2="159.01" gradientUnits="userSpaceOnUse">
<stop stop-opacity="0"/>
<stop offset="0.02" stop-color="#030304" stop-opacity="0.04"/>
<stop offset="0.18" stop-color="#181821" stop-opacity="0.39"/>
<stop offset="0.35" stop-color="#292839" stop-opacity="0.66"/>
<stop offset="0.53" stop-color="#363449" stop-opacity="0.85"/>
<stop offset="0.73" stop-color="#3D3B53" stop-opacity="0.96"/>
<stop offset="0.99" stop-color="#3F3D56"/>
</linearGradient>
<linearGradient id="paint8_linear_17_1768" x1="383.62" y1="240.51" x2="358.16" y2="151.74" gradientUnits="userSpaceOnUse">
<stop stop-opacity="0"/>
<stop offset="0.02" stop-color="#030304" stop-opacity="0.04"/>
<stop offset="0.18" stop-color="#181821" stop-opacity="0.39"/>
<stop offset="0.35" stop-color="#292839" stop-opacity="0.66"/>
<stop offset="0.53" stop-color="#363449" stop-opacity="0.85"/>
<stop offset="0.73" stop-color="#3D3B53" stop-opacity="0.96"/>
<stop offset="0.99" stop-color="#3F3D56"/>
</linearGradient>
<linearGradient id="paint9_linear_17_1768" x1="371.63" y1="170.23" x2="244.49" y2="351.29" gradientUnits="userSpaceOnUse">
<stop stop-opacity="0"/>
<stop offset="0.02" stop-color="#030304" stop-opacity="0.04"/>
<stop offset="0.18" stop-color="#181821" stop-opacity="0.39"/>
<stop offset="0.35" stop-color="#292839" stop-opacity="0.66"/>
<stop offset="0.53" stop-color="#363449" stop-opacity="0.85"/>
<stop offset="0.73" stop-color="#3D3B53" stop-opacity="0.96"/>
<stop offset="0.99" stop-color="#3F3D56"/>
</linearGradient>
<linearGradient id="paint10_linear_17_1768" x1="385.52" y1="179.98" x2="258.38" y2="361.05" gradientUnits="userSpaceOnUse">
<stop stop-opacity="0"/>
<stop offset="0.02" stop-color="#030304" stop-opacity="0.04"/>
<stop offset="0.18" stop-color="#181821" stop-opacity="0.39"/>
<stop offset="0.35" stop-color="#292839" stop-opacity="0.66"/>
<stop offset="0.53" stop-color="#363449" stop-opacity="0.85"/>
<stop offset="0.73" stop-color="#3D3B53" stop-opacity="0.96"/>
<stop offset="0.99" stop-color="#3F3D56"/>
</linearGradient>
<linearGradient id="paint11_linear_17_1768" x1="425.16" y1="273.9" x2="675.81" y2="509.89" gradientUnits="userSpaceOnUse">
<stop stop-opacity="0"/>
<stop offset="0.02" stop-color="#030304" stop-opacity="0.04"/>
<stop offset="0.18" stop-color="#181821" stop-opacity="0.39"/>
<stop offset="0.35" stop-color="#292839" stop-opacity="0.66"/>
<stop offset="0.53" stop-color="#363449" stop-opacity="0.85"/>
<stop offset="0.73" stop-color="#3D3B53" stop-opacity="0.96"/>
<stop offset="0.99" stop-color="#3F3D56"/>
</linearGradient>
<linearGradient id="paint12_linear_17_1768" x1="548.26" y1="334.68" x2="334.53" y2="397.79" gradientUnits="userSpaceOnUse">
<stop stop-opacity="0"/>
<stop offset="0.02" stop-color="#030304" stop-opacity="0.04"/>
<stop offset="0.18" stop-color="#181821" stop-opacity="0.39"/>
<stop offset="0.35" stop-color="#292839" stop-opacity="0.66"/>
<stop offset="0.53" stop-color="#363449" stop-opacity="0.85"/>
<stop offset="0.73" stop-color="#3D3B53" stop-opacity="0.96"/>
<stop offset="0.99" stop-color="#3F3D56"/>
</linearGradient>
<linearGradient id="paint13_linear_17_1768" x1="382.41" y1="313.17" x2="412.87" y2="313.17" gradientUnits="userSpaceOnUse">
<stop stop-color="#ECC4D7"/>
<stop offset="0.42" stop-color="#EFD4D1"/>
<stop offset="1" stop-color="#F2EAC9"/>
</linearGradient>
<linearGradient id="paint14_linear_17_1768" x1="463.69" y1="408.74" x2="521.1" y2="408.74" gradientUnits="userSpaceOnUse">
<stop stop-color="#68E1FD"/>
<stop offset="1" stop-color="#69B9EB"/>
</linearGradient>
<linearGradient id="paint15_linear_17_1768" x1="486.41" y1="276.32" x2="513.62" y2="275.83" gradientUnits="userSpaceOnUse">
<stop stop-color="#ECC4D7"/>
<stop offset="0.42" stop-color="#EFD4D1"/>
<stop offset="1" stop-color="#F2EAC9"/>
</linearGradient>
<linearGradient id="paint16_linear_17_1768" x1="488" y1="271.91" x2="482.39" y2="274.87" gradientUnits="userSpaceOnUse">
<stop stop-color="#ECC4D7"/>
<stop offset="0.42" stop-color="#EFD4D1"/>
<stop offset="1" stop-color="#F2EAC9"/>
</linearGradient>
<linearGradient id="paint17_linear_17_1768" x1="500.65" y1="333.25" x2="429.9" y2="305.55" gradientUnits="userSpaceOnUse">
<stop stop-color="white" stop-opacity="0"/>
<stop offset="1" stop-color="white"/>
</linearGradient>
<linearGradient id="paint18_linear_17_1768" x1="456.18" y1="581.96" x2="491.9" y2="581.96" gradientUnits="userSpaceOnUse">
<stop stop-opacity="0"/>
<stop offset="0.02" stop-color="#030304" stop-opacity="0.04"/>
<stop offset="0.18" stop-color="#181821" stop-opacity="0.39"/>
<stop offset="0.35" stop-color="#292839" stop-opacity="0.66"/>
<stop offset="0.53" stop-color="#363449" stop-opacity="0.85"/>
<stop offset="0.73" stop-color="#3D3B53" stop-opacity="0.96"/>
<stop offset="0.99" stop-color="#3F3D56"/>
</linearGradient>
<linearGradient id="paint19_linear_17_1768" x1="492.97" y1="584.48" x2="513.75" y2="584.48" gradientUnits="userSpaceOnUse">
<stop stop-opacity="0"/>
<stop offset="0.02" stop-color="#030304" stop-opacity="0.04"/>
<stop offset="0.18" stop-color="#181821" stop-opacity="0.39"/>
<stop offset="0.35" stop-color="#292839" stop-opacity="0.66"/>
<stop offset="0.53" stop-color="#363449" stop-opacity="0.85"/>
<stop offset="0.73" stop-color="#3D3B53" stop-opacity="0.96"/>
<stop offset="0.99" stop-color="#3F3D56"/>
</linearGradient>
<clipPath id="clip0_17_1768">
<rect width="635.4" height="597" fill="white"/>
</clipPath>
</defs>
</svg>
