<svg width="256" height="179" viewBox="0 0 256 179" fill="none" xmlns="http://www.w3.org/2000/svg">
<g clip-path="url(#clip0_1816_1994)">
<path d="M51.0063 178.113C79.1763 178.113 102.013 176.378 102.013 174.239C102.013 172.099 79.1763 170.365 51.0063 170.365C22.8363 170.365 0 172.099 0 174.239C0 176.378 22.8363 178.113 51.0063 178.113Z" fill="#E6E6E6"/>
<path d="M38.9883 39.5199C47.8649 35.7444 58.9209 38.1365 69.7183 39.7967C69.8187 37.7862 71.0366 35.3392 69.7609 33.9366C68.2109 32.2324 68.3536 30.4419 69.2863 28.641C71.6713 24.0359 68.2543 19.1358 64.8041 15.0615C64.0265 14.1452 63.0437 13.4253 61.9356 12.9602C60.8274 12.4951 59.6252 12.2979 58.4266 12.3847L52.0355 12.8412C50.4803 12.9523 48.9961 13.5357 47.7815 14.5133C46.5669 15.491 45.6799 16.8163 45.2391 18.3118V18.3118C43.713 20.3873 42.8962 22.4571 43.4104 24.5161C41.1246 26.0781 40.7406 27.9638 41.7677 30.0894C42.6387 31.4278 42.6295 32.7307 41.7281 33.9974C40.5444 35.6124 39.6378 37.4132 39.0454 39.326L38.9883 39.5199Z" fill="#2F2E41"/>
<path d="M249.932 153.976H69.0155C67.4066 153.976 65.8636 153.336 64.726 152.199C63.5883 151.061 62.9492 149.518 62.9492 147.909C128.531 140.287 192.881 140.287 255.998 147.909C255.998 149.518 255.359 151.061 254.222 152.199C253.084 153.336 251.541 153.976 249.932 153.976Z" fill="#2F2E41"/>
<path d="M255.998 148.266L62.9492 147.909L85.3229 110.263L85.43 110.085V27.1162C85.4299 26.1091 85.6282 25.1119 86.0136 24.1815C86.3989 23.2511 86.9637 22.4057 87.6758 21.6936C88.3879 20.9815 89.2333 20.4167 90.1637 20.0313C91.0942 19.646 92.0914 19.4477 93.0984 19.4478H224.779C225.786 19.4477 226.783 19.646 227.713 20.0313C228.644 20.4167 229.489 20.9815 230.201 21.6936C230.913 22.4057 231.478 23.2511 231.864 24.1815C232.249 25.1119 232.447 26.1091 232.447 27.1162V110.655L255.998 148.266Z" fill="#3F3D56"/>
<path d="M92.9236 24.8003C92.2614 24.801 91.6265 25.0644 91.1582 25.5327C90.6899 26.001 90.4265 26.6359 90.4258 27.2982V102.948C90.4266 103.61 90.69 104.245 91.1582 104.713C91.6265 105.181 92.2614 105.445 92.9236 105.446H226.024C226.686 105.445 227.321 105.181 227.789 104.713C228.258 104.245 228.521 103.61 228.522 102.948V27.2982C228.521 26.6359 228.258 26.001 227.79 25.5328C227.321 25.0645 226.686 24.8011 226.024 24.8003H92.9236Z" fill="white"/>
<path d="M93.4842 115.437C93.2795 115.437 93.0793 115.496 92.9069 115.607C92.7346 115.717 92.5975 115.874 92.5116 116.06L85.6176 131.047C85.5425 131.21 85.5097 131.39 85.5221 131.569C85.5345 131.748 85.5918 131.921 85.6886 132.072C85.7855 132.223 85.9188 132.348 86.0763 132.434C86.2338 132.52 86.4104 132.565 86.59 132.565H231.568C231.75 132.565 231.93 132.519 232.089 132.43C232.249 132.341 232.383 132.213 232.479 132.057C232.574 131.902 232.629 131.725 232.637 131.543C232.645 131.36 232.607 131.179 232.525 131.016L225.032 116.029C224.943 115.851 224.807 115.701 224.638 115.596C224.468 115.492 224.273 115.436 224.074 115.437H93.4842Z" fill="#2F2E41"/>
<path d="M158.942 23.5514C159.829 23.5514 160.548 22.8325 160.548 21.9456C160.548 21.0588 159.829 20.3398 158.942 20.3398C158.055 20.3398 157.336 21.0588 157.336 21.9456C157.336 22.8325 158.055 23.5514 158.942 23.5514Z" fill="white"/>
<path d="M144.69 135.42C144.455 135.42 144.226 135.498 144.04 135.641C143.853 135.784 143.718 135.985 143.657 136.212L141.927 142.635C141.885 142.794 141.879 142.96 141.911 143.121C141.943 143.283 142.011 143.434 142.111 143.565C142.211 143.695 142.34 143.801 142.487 143.873C142.635 143.946 142.797 143.984 142.961 143.984H175.849C176.019 143.984 176.187 143.943 176.339 143.865C176.491 143.787 176.621 143.673 176.72 143.534C176.819 143.395 176.884 143.235 176.908 143.066C176.932 142.897 176.916 142.725 176.86 142.563L174.637 136.14C174.564 135.93 174.427 135.748 174.246 135.618C174.064 135.489 173.847 135.42 173.625 135.42H144.69Z" fill="#2F2E41"/>
<path d="M232.448 108.835V110.263H85.3242L85.4349 110.084V108.835H232.448Z" fill="#2F2E41"/>
<path d="M228.346 49.9573C242.141 49.9573 253.324 38.774 253.324 24.9786C253.324 11.1833 242.141 0 228.346 0C214.551 0 203.367 11.1833 203.367 24.9786C203.367 38.774 214.551 49.9573 228.346 49.9573Z" fill="#6C63FF"/>
<path d="M238.694 35.8621H217.998C217.619 35.8617 217.256 35.7112 216.989 35.4436C216.721 35.176 216.571 34.8132 216.57 34.4347V21.9454C216.571 21.567 216.721 21.2042 216.989 20.9366C217.256 20.669 217.619 20.5185 217.998 20.5181H238.694C239.073 20.5185 239.435 20.669 239.703 20.9366C239.971 21.2042 240.121 21.567 240.122 21.9454V34.4347C240.121 34.8132 239.971 35.176 239.703 35.4436C239.436 35.7112 239.073 35.8617 238.694 35.8621ZM217.998 21.9454V34.4347H238.695L238.694 21.9454L217.998 21.9454Z" fill="white"/>
<path d="M234.768 21.9453H221.922V16.2359C221.922 12.1005 224.623 9.09912 228.345 9.09912C232.067 9.09912 234.768 12.1005 234.768 16.2359L234.768 21.9453ZM223.349 20.5179H233.341V16.2359C233.341 12.8743 231.286 10.5265 228.345 10.5265C225.404 10.5265 223.349 12.8743 223.349 16.2359L223.349 20.5179Z" fill="white"/>
<path d="M228.345 29.2605C229.134 29.2605 229.773 28.6214 229.773 27.8331C229.773 27.0448 229.134 26.4058 228.345 26.4058C227.557 26.4058 226.918 27.0448 226.918 27.8331C226.918 28.6214 227.557 29.2605 228.345 29.2605Z" fill="white"/>
<path d="M210.906 79.7861H108.042C107.537 79.7856 107.052 79.5847 106.695 79.2276C106.338 78.8704 106.137 78.3863 106.137 77.8812V52.3649C106.137 51.8598 106.338 51.3757 106.695 51.0185C107.052 50.6614 107.537 50.4606 108.042 50.46H210.906C211.411 50.4606 211.896 50.6614 212.253 51.0185C212.61 51.3757 212.811 51.8598 212.811 52.3649V77.8812C212.811 78.3863 212.61 78.8704 212.253 79.2276C211.896 79.5847 211.411 79.7856 210.906 79.7861V79.7861ZM108.042 51.2219C107.739 51.2223 107.448 51.3428 107.234 51.5571C107.02 51.7713 106.899 52.0618 106.899 52.3649V77.8812C106.899 78.1843 107.02 78.4748 107.234 78.6891C107.448 78.9033 107.739 79.0239 108.042 79.0242H210.906C211.209 79.0239 211.5 78.9033 211.714 78.6891C211.929 78.4748 212.049 78.1843 212.049 77.8812V52.3649C212.049 52.0618 211.929 51.7713 211.714 51.557C211.5 51.3428 211.209 51.2223 210.906 51.2219L108.042 51.2219Z" fill="#E6E6E6"/>
<path d="M124.025 71.9034C128.311 71.9034 131.785 68.4293 131.785 64.1438C131.785 59.8584 128.311 56.3843 124.025 56.3843C119.74 56.3843 116.266 59.8584 116.266 64.1438C116.266 68.4293 119.74 71.9034 124.025 71.9034Z" fill="#E6E6E6"/>
<path d="M141.948 58.9707C141.778 58.9704 141.609 59.0037 141.452 59.0686C141.295 59.1334 141.152 59.2287 141.032 59.3488C140.912 59.4689 140.816 59.6115 140.751 59.7686C140.686 59.9256 140.652 60.094 140.652 60.264C140.652 60.434 140.686 60.6023 140.751 60.7593C140.816 60.9164 140.912 61.059 141.032 61.1792C141.152 61.2993 141.295 61.3945 141.452 61.4594C141.609 61.5242 141.778 61.5575 141.948 61.5572H202.916C203.259 61.5572 203.588 61.421 203.83 61.1784C204.073 60.9359 204.209 60.607 204.209 60.264C204.209 59.921 204.073 59.592 203.83 59.3495C203.588 59.107 203.259 58.9707 202.916 58.9707H141.948Z" fill="#E6E6E6"/>
<path d="M141.946 66.7305C141.603 66.7305 141.274 66.8667 141.031 67.1093C140.789 67.3518 140.652 67.6807 140.652 68.0237C140.652 68.3667 140.789 68.6957 141.031 68.9382C141.274 69.1807 141.603 69.317 141.946 69.317H168.18C168.523 69.317 168.852 69.1807 169.095 68.9382C169.337 68.6957 169.474 68.3667 169.474 68.0237C169.474 67.6807 169.337 67.3518 169.095 67.1093C168.852 66.8667 168.523 66.7305 168.18 66.7305H141.946Z" fill="#E6E6E6"/>
<path d="M85.0725 67.2534L66.0571 77.3628L65.8164 68.9383C72.0229 67.9022 77.9277 66.0983 83.3876 63.1615L85.3763 58.2481C85.593 57.7127 85.9452 57.2428 86.3984 56.8847C86.8515 56.5265 87.39 56.2924 87.961 56.2052C88.5319 56.118 89.1158 56.1808 89.6551 56.3874C90.1945 56.594 90.6709 56.9373 91.0375 57.3836V57.3836C91.5739 58.0366 91.8421 58.8691 91.7876 59.7124C91.7331 60.5557 91.3602 61.3468 90.7442 61.9254L85.0725 67.2534Z" fill="#FFB8B8"/>
<path d="M38.6082 125.622C38.4694 125.113 38.44 124.581 38.5217 124.06C38.6035 123.539 38.7946 123.041 39.0825 122.599L43.2596 116.189C44.2476 114.672 45.7636 113.577 47.5135 113.116C49.2633 112.654 51.1223 112.859 52.7297 113.69V113.69C50.9742 116.678 51.2189 119.3 53.336 121.578C50.0494 123.182 47.0119 125.253 44.3175 127.726C43.8256 128.062 43.2607 128.274 42.6699 128.347C42.079 128.42 41.4793 128.351 40.9208 128.145C40.3622 127.939 39.8609 127.603 39.4586 127.164C39.0563 126.725 38.7648 126.196 38.6082 125.622V125.622Z" fill="#2F2E41"/>
<path d="M85.9362 117.24C85.3041 118.293 84.4118 119.167 83.3451 119.776C82.2783 120.385 81.0727 120.71 79.8442 120.719L52.0941 120.93L50.8906 113.949L63.1664 110.339L52.8162 102.396L64.1291 89.1572L84.6769 108.309C85.8779 109.428 86.6582 110.926 86.8874 112.551C87.1166 114.177 86.7808 115.832 85.9362 117.24V117.24Z" fill="#2F2E41"/>
<path d="M47.7634 164.978H41.2645C35.4294 124.981 29.4898 84.8719 47.0413 69.9014L67.7416 73.2712L65.0939 90.8423L53.5402 104.081L47.7634 164.978Z" fill="#2F2E41"/>
<path d="M53.4762 174.038C52.9674 174.177 52.435 174.207 51.9141 174.125C51.3931 174.043 50.8953 173.852 50.4535 173.564L43.397 172.616C41.8807 171.628 40.7854 170.112 40.3237 168.362C39.8619 166.612 40.0666 164.753 40.898 163.146C43.8864 164.901 46.5078 164.656 48.7858 162.539C50.3954 165.789 53.0474 165.591 55.5801 168.329C55.9155 168.821 56.1285 169.386 56.2013 169.976C56.2741 170.567 56.2048 171.167 55.9989 171.726C55.7931 172.284 55.4567 172.786 55.0179 173.188C54.5791 173.59 54.0505 173.882 53.4762 174.038V174.038Z" fill="#2F2E41"/>
<path d="M63.1679 43.1835L51.1328 40.2951C53.1316 36.2037 53.2962 31.6511 52.3363 26.8159L60.5201 26.5752C60.7766 32.5879 61.5523 38.2053 63.1679 43.1835Z" fill="#FFB8B8"/>
<path d="M66.4768 80.5185C57.7157 86.4885 51.5254 80.7227 46.8015 71.8269C47.4579 66.3835 46.3951 59.8693 44.4266 52.7911C43.5511 49.6692 43.878 46.3324 45.3426 43.4397C46.8072 40.5469 49.3031 38.3084 52.3376 37.166V37.166L62.6877 41.4986C71.4762 48.6622 73.206 56.4219 69.9088 64.6059L66.4768 80.5185Z" fill="#6C63FF"/>
<path d="M41.2657 49.2008L31.6377 54.2555L48.7274 64.3649L51.1054 70.2305C51.2641 70.622 51.3414 71.0417 51.3326 71.464C51.3238 71.8864 51.2291 72.3025 51.0542 72.6871C50.8793 73.0716 50.628 73.4165 50.3155 73.7008C50.0029 73.985 49.6358 74.2026 49.2364 74.3403V74.3403C48.7825 74.4969 48.2984 74.5462 47.8222 74.4844C47.346 74.4227 46.8905 74.2515 46.4915 73.9843C46.0925 73.7172 45.7607 73.3613 45.5222 72.9445C45.2837 72.5277 45.1449 72.0614 45.1167 71.582L44.8762 67.494L23.1553 60.3261C22.4235 60.0846 21.7562 59.6797 21.204 59.1422C20.6519 58.6046 20.2292 57.9484 19.9682 57.2233V57.2233C19.5877 56.1664 19.5683 55.0131 19.9131 53.944C20.2579 52.8749 20.9474 51.9503 21.8737 51.3148L39.3401 39.332L41.2657 49.2008Z" fill="#FFB8B8"/>
<path d="M50.8924 50.1637C46.8769 48.404 43.2255 50.3156 38.6166 51.8486L37.8945 39.0915C42.4709 36.6523 46.8342 35.9947 50.8924 37.888L50.8924 50.1637Z" fill="#6C63FF"/>
<path d="M55.6956 32.8942C59.9393 32.8942 63.3795 29.454 63.3795 25.2103C63.3795 20.9666 59.9393 17.5264 55.6956 17.5264C51.4519 17.5264 48.0117 20.9666 48.0117 25.2103C48.0117 29.454 51.4519 32.8942 55.6956 32.8942Z" fill="#FFB8B8"/>
<path d="M64.887 24.2405C57.2793 24.9856 51.4823 23.7414 47.7773 20.1987V17.3457H64.2414L64.887 24.2405Z" fill="#2F2E41"/>
</g>
<defs>
<clipPath id="clip0_1816_1994">
<rect width="256" height="178.113" fill="white"/>
</clipPath>
</defs>
</svg>
